<svg xmlns="http://www.w3.org/2000/svg" xmlns:xlink="http://www.w3.org/1999/xlink"><defs><style>
    .sprite-symbol-usage {display: none;}
    .sprite-symbol-usage:target {display: inline;}
  </style><symbol viewBox="0 0 448 512" id="behance-square"><path d="M186.5 293c0 19.3-14 25.4-31.2 25.4h-45.1v-52.9h46c18.6.1 30.3 7.8 30.3 27.5zm-7.7-82.3c0-17.7-13.7-21.9-28.9-21.9h-39.6v44.8H153c15.1 0 25.8-6.6 25.8-22.9zm132.3 23.2c-18.3 0-30.5 11.4-31.7 29.7h62.2c-1.7-18.5-11.3-29.7-30.5-29.7zM448 80v352c0 26.5-21.5 48-48 48H48c-26.5 0-48-21.5-48-48V80c0-26.5 21.5-48 48-48h352c26.5 0 48 21.5 48 48zM271.7 185h77.8v-18.9h-77.8V185zm-43 110.3c0-24.1-11.4-44.9-35-51.6 17.2-8.2 26.2-17.7 26.2-37 0-38.2-28.5-47.5-61.4-47.5H68v192h93.1c34.9-.2 67.6-16.9 67.6-55.9zM380 280.5c0-41.1-24.1-75.4-67.6-75.4-42.4 0-71.1 31.8-71.1 73.6 0 43.3 27.3 73 71.1 73 33.2 0 54.7-14.9 65.1-46.8h-33.7c-3.7 11.9-18.6 18.1-30.2 18.1-22.4 0-34.1-13.1-34.1-35.3h100.2c.1-2.3.3-4.8.3-7.2z" /></symbol><symbol viewBox="0 0 448 512" id="behance-square"><path d="M186.5 293c0 19.3-14 25.4-31.2 25.4h-45.1v-52.9h46c18.6.1 30.3 7.8 30.3 27.5zm-7.7-82.3c0-17.7-13.7-21.9-28.9-21.9h-39.6v44.8H153c15.1 0 25.8-6.6 25.8-22.9zm132.3 23.2c-18.3 0-30.5 11.4-31.7 29.7h62.2c-1.7-18.5-11.3-29.7-30.5-29.7zM448 80v352c0 26.5-21.5 48-48 48H48c-26.5 0-48-21.5-48-48V80c0-26.5 21.5-48 48-48h352c26.5 0 48 21.5 48 48zM271.7 185h77.8v-18.9h-77.8V185zm-43 110.3c0-24.1-11.4-44.9-35-51.6 17.2-8.2 26.2-17.7 26.2-37 0-38.2-28.5-47.5-61.4-47.5H68v192h93.1c34.9-.2 67.6-16.9 67.6-55.9zM380 280.5c0-41.1-24.1-75.4-67.6-75.4-42.4 0-71.1 31.8-71.1 73.6 0 43.3 27.3 73 71.1 73 33.2 0 54.7-14.9 65.1-46.8h-33.7c-3.7 11.9-18.6 18.1-30.2 18.1-22.4 0-34.1-13.1-34.1-35.3h100.2c.1-2.3.3-4.8.3-7.2z" /></symbol><symbol viewBox="0 0 448 512" id="blogger"><path d="M162.4 196c4.8-4.9 6.2-5.1 36.4-5.1 27.2 0 28.1.1 32.1 2.1 5.8 2.9 8.3 7 8.3 13.6 0 5.9-2.4 10-7.6 13.4-2.8 1.8-4.5 1.9-31.1 2.1-16.4.1-29.5-.2-31.5-.8-10.3-2.9-14.1-17.7-6.6-25.3zm61.4 94.5c-53.9 0-55.8.2-60.2 4.1-3.5 3.1-5.7 9.4-5.1 13.9.7 4.7 4.8 10.1 9.2 12 2.2 1 14.1 1.7 56.3 1.2l47.9-.6 9.2-1.5c9-5.1 10.5-17.4 3.1-24.4-5.3-4.7-5-4.7-60.4-4.7zm223.4 130.1c-3.5 28.4-23 50.4-51.1 57.5-7.2 1.8-9.7 1.9-172.9 1.8-157.8 0-165.9-.1-172-1.8-8.4-2.2-15.6-5.5-22.3-10-5.6-3.8-13.9-11.8-17-16.4-3.8-5.6-8.2-15.3-10-22C.1 423 0 420.3 0 256.3 0 93.2 0 89.7 1.8 82.6 8.1 57.9 27.7 39 53 33.4c7.3-1.6 332.1-1.9 340-.3 21.2 4.3 37.9 17.1 47.6 36.4 7.7 15.3 7-1.5 7.3 180.6.2 115.8 0 164.5-.7 170.5zm-85.4-185.2c-1.1-5-4.2-9.6-7.7-11.5-1.1-.6-8-1.3-15.5-1.7-12.4-.6-13.8-.8-17.8-3.1-6.2-3.6-7.9-7.6-8-18.3 0-20.4-8.5-39.4-25.3-56.5-12-12.2-25.3-20.5-40.6-25.1-3.6-1.1-11.8-1.5-39.2-1.8-42.9-.5-52.5.4-67.1 6.2-27 10.7-46.3 33.4-53.4 62.4-1.3 5.4-1.6 14.2-1.9 64.3-.4 62.8 0 72.1 4 84.5 9.7 30.7 37.1 53.4 64.6 58.4 9.2 1.7 122.2 2.1 133.7.5 20.1-2.7 35.9-10.8 50.7-25.9 10.7-10.9 17.4-22.8 21.8-38.5 3.2-10.9 2.9-88.4 1.7-93.9z" /></symbol><symbol viewBox="0 0 448 512" id="blogger"><path d="M162.4 196c4.8-4.9 6.2-5.1 36.4-5.1 27.2 0 28.1.1 32.1 2.1 5.8 2.9 8.3 7 8.3 13.6 0 5.9-2.4 10-7.6 13.4-2.8 1.8-4.5 1.9-31.1 2.1-16.4.1-29.5-.2-31.5-.8-10.3-2.9-14.1-17.7-6.6-25.3zm61.4 94.5c-53.9 0-55.8.2-60.2 4.1-3.5 3.1-5.7 9.4-5.1 13.9.7 4.7 4.8 10.1 9.2 12 2.2 1 14.1 1.7 56.3 1.2l47.9-.6 9.2-1.5c9-5.1 10.5-17.4 3.1-24.4-5.3-4.7-5-4.7-60.4-4.7zm223.4 130.1c-3.5 28.4-23 50.4-51.1 57.5-7.2 1.8-9.7 1.9-172.9 1.8-157.8 0-165.9-.1-172-1.8-8.4-2.2-15.6-5.5-22.3-10-5.6-3.8-13.9-11.8-17-16.4-3.8-5.6-8.2-15.3-10-22C.1 423 0 420.3 0 256.3 0 93.2 0 89.7 1.8 82.6 8.1 57.9 27.7 39 53 33.4c7.3-1.6 332.1-1.9 340-.3 21.2 4.3 37.9 17.1 47.6 36.4 7.7 15.3 7-1.5 7.3 180.6.2 115.8 0 164.5-.7 170.5zm-85.4-185.2c-1.1-5-4.2-9.6-7.7-11.5-1.1-.6-8-1.3-15.5-1.7-12.4-.6-13.8-.8-17.8-3.1-6.2-3.6-7.9-7.6-8-18.3 0-20.4-8.5-39.4-25.3-56.5-12-12.2-25.3-20.5-40.6-25.1-3.6-1.1-11.8-1.5-39.2-1.8-42.9-.5-52.5.4-67.1 6.2-27 10.7-46.3 33.4-53.4 62.4-1.3 5.4-1.6 14.2-1.9 64.3-.4 62.8 0 72.1 4 84.5 9.7 30.7 37.1 53.4 64.6 58.4 9.2 1.7 122.2 2.1 133.7.5 20.1-2.7 35.9-10.8 50.7-25.9 10.7-10.9 17.4-22.8 21.8-38.5 3.2-10.9 2.9-88.4 1.7-93.9z" /></symbol><symbol viewBox="0 0 448 512" id="chevron-down"><path d="M207.029 381.476L12.686 187.132c-9.373-9.373-9.373-24.569 0-33.941l22.667-22.667c9.357-9.357 24.522-9.375 33.901-.04L224 284.505l154.745-154.021c9.379-9.335 24.544-9.317 33.901.04l22.667 22.667c9.373 9.373 9.373 24.569 0 33.941L240.971 381.476c-9.373 9.372-24.569 9.372-33.942 0z" /></symbol><symbol viewBox="0 0 448 512" id="chevron-down"><path d="M207.029 381.476L12.686 187.132c-9.373-9.373-9.373-24.569 0-33.941l22.667-22.667c9.357-9.357 24.522-9.375 33.901-.04L224 284.505l154.745-154.021c9.379-9.335 24.544-9.317 33.901.04l22.667 22.667c9.373 9.373 9.373 24.569 0 33.941L240.971 381.476c-9.373 9.372-24.569 9.372-33.942 0z" /></symbol><symbol viewBox="0 0 448 512" id="dribbble-square"><path d="M90.2 228.2c8.9-42.4 37.4-77.7 75.7-95.7 3.6 4.9 28 38.8 50.7 79-64 17-120.3 16.8-126.4 16.7zM314.6 154c-33.6-29.8-79.3-41.1-122.6-30.6 3.8 5.1 28.6 38.9 51 80 48.6-18.3 69.1-45.9 71.6-49.4zM140.1 364c40.5 31.6 93.3 36.7 137.3 18-2-12-10-53.8-29.2-103.6-55.1 18.8-93.8 56.4-108.1 85.6zm98.8-108.2c-3.4-7.8-7.2-15.5-11.1-23.2C159.6 253 93.4 252.2 87.4 252c0 1.4-.1 2.8-.1 4.2 0 35.1 13.3 67.1 35.1 91.4 22.2-37.9 67.1-77.9 116.5-91.8zm34.9 16.3c17.9 49.1 25.1 89.1 26.5 97.4 30.7-20.7 52.5-53.6 58.6-91.6-4.6-1.5-42.3-12.7-85.1-5.8zm-20.3-48.4c4.8 9.8 8.3 17.8 12 26.8 45.5-5.7 90.7 3.4 95.2 4.4-.3-32.3-11.8-61.9-30.9-85.1-2.9 3.9-25.8 33.2-76.3 53.9zM448 80v352c0 26.5-21.5 48-48 48H48c-26.5 0-48-21.5-48-48V80c0-26.5 21.5-48 48-48h352c26.5 0 48 21.5 48 48zm-64 176c0-88.2-71.8-160-160-160S64 167.8 64 256s71.8 160 160 160 160-71.8 160-160z" /></symbol><symbol viewBox="0 0 448 512" id="dribbble-square"><path d="M90.2 228.2c8.9-42.4 37.4-77.7 75.7-95.7 3.6 4.9 28 38.8 50.7 79-64 17-120.3 16.8-126.4 16.7zM314.6 154c-33.6-29.8-79.3-41.1-122.6-30.6 3.8 5.1 28.6 38.9 51 80 48.6-18.3 69.1-45.9 71.6-49.4zM140.1 364c40.5 31.6 93.3 36.7 137.3 18-2-12-10-53.8-29.2-103.6-55.1 18.8-93.8 56.4-108.1 85.6zm98.8-108.2c-3.4-7.8-7.2-15.5-11.1-23.2C159.6 253 93.4 252.2 87.4 252c0 1.4-.1 2.8-.1 4.2 0 35.1 13.3 67.1 35.1 91.4 22.2-37.9 67.1-77.9 116.5-91.8zm34.9 16.3c17.9 49.1 25.1 89.1 26.5 97.4 30.7-20.7 52.5-53.6 58.6-91.6-4.6-1.5-42.3-12.7-85.1-5.8zm-20.3-48.4c4.8 9.8 8.3 17.8 12 26.8 45.5-5.7 90.7 3.4 95.2 4.4-.3-32.3-11.8-61.9-30.9-85.1-2.9 3.9-25.8 33.2-76.3 53.9zM448 80v352c0 26.5-21.5 48-48 48H48c-26.5 0-48-21.5-48-48V80c0-26.5 21.5-48 48-48h352c26.5 0 48 21.5 48 48zm-64 176c0-88.2-71.8-160-160-160S64 167.8 64 256s71.8 160 160 160 160-71.8 160-160z" /></symbol><symbol viewBox="0 0 448 512" id="envelope-square"><path d="M400 32H48C21.49 32 0 53.49 0 80v352c0 26.51 21.49 48 48 48h352c26.51 0 48-21.49 48-48V80c0-26.51-21.49-48-48-48zM178.117 262.104C87.429 196.287 88.353 196.121 64 177.167V152c0-13.255 10.745-24 24-24h272c13.255 0 24 10.745 24 24v25.167c-24.371 18.969-23.434 19.124-114.117 84.938-10.5 7.655-31.392 26.12-45.883 25.894-14.503.218-35.367-18.227-45.883-25.895zM384 217.775V360c0 13.255-10.745 24-24 24H88c-13.255 0-24-10.745-24-24V217.775c13.958 10.794 33.329 25.236 95.303 70.214 14.162 10.341 37.975 32.145 64.694 32.01 26.887.134 51.037-22.041 64.72-32.025 61.958-44.965 81.325-59.406 95.283-70.199z" /></symbol><symbol viewBox="0 0 448 512" id="envelope-square"><path d="M400 32H48C21.49 32 0 53.49 0 80v352c0 26.51 21.49 48 48 48h352c26.51 0 48-21.49 48-48V80c0-26.51-21.49-48-48-48zM178.117 262.104C87.429 196.287 88.353 196.121 64 177.167V152c0-13.255 10.745-24 24-24h272c13.255 0 24 10.745 24 24v25.167c-24.371 18.969-23.434 19.124-114.117 84.938-10.5 7.655-31.392 26.12-45.883 25.894-14.503.218-35.367-18.227-45.883-25.895zM384 217.775V360c0 13.255-10.745 24-24 24H88c-13.255 0-24-10.745-24-24V217.775c13.958 10.794 33.329 25.236 95.303 70.214 14.162 10.341 37.975 32.145 64.694 32.01 26.887.134 51.037-22.041 64.72-32.025 61.958-44.965 81.325-59.406 95.283-70.199z" /></symbol><symbol viewBox="0 0 448 512" id="facebook-square"><path d="M448 80v352c0 26.5-21.5 48-48 48h-85.3V302.8h60.6l8.7-67.6h-69.3V192c0-19.6 5.4-32.9 33.5-32.9H384V98.7c-6.2-.8-27.4-2.7-52.2-2.7-51.6 0-87 31.5-87 89.4v49.9H184v67.6h60.9V480H48c-26.5 0-48-21.5-48-48V80c0-26.5 21.5-48 48-48h352c26.5 0 48 21.5 48 48z" /></symbol><symbol viewBox="0 0 448 512" id="facebook-square"><path d="M448 80v352c0 26.5-21.5 48-48 48h-85.3V302.8h60.6l8.7-67.6h-69.3V192c0-19.6 5.4-32.9 33.5-32.9H384V98.7c-6.2-.8-27.4-2.7-52.2-2.7-51.6 0-87 31.5-87 89.4v49.9H184v67.6h60.9V480H48c-26.5 0-48-21.5-48-48V80c0-26.5 21.5-48 48-48h352c26.5 0 48 21.5 48 48z" /></symbol><symbol viewBox="0 0 448 512" id="flickr"><path d="M400 32H48C21.5 32 0 53.5 0 80v352c0 26.5 21.5 48 48 48h352c26.5 0 48-21.5 48-48V80c0-26.5-21.5-48-48-48zM144.5 319c-35.1 0-63.5-28.4-63.5-63.5s28.4-63.5 63.5-63.5 63.5 28.4 63.5 63.5-28.4 63.5-63.5 63.5zm159 0c-35.1 0-63.5-28.4-63.5-63.5s28.4-63.5 63.5-63.5 63.5 28.4 63.5 63.5-28.4 63.5-63.5 63.5z" /></symbol><symbol viewBox="0 0 448 512" id="flickr"><path d="M400 32H48C21.5 32 0 53.5 0 80v352c0 26.5 21.5 48 48 48h352c26.5 0 48-21.5 48-48V80c0-26.5-21.5-48-48-48zM144.5 319c-35.1 0-63.5-28.4-63.5-63.5s28.4-63.5 63.5-63.5 63.5 28.4 63.5 63.5-28.4 63.5-63.5 63.5zm159 0c-35.1 0-63.5-28.4-63.5-63.5s28.4-63.5 63.5-63.5 63.5 28.4 63.5 63.5-28.4 63.5-63.5 63.5z" /></symbol><symbol viewBox="0 0 448 512" id="github-square"><path d="M400 32H48C21.5 32 0 53.5 0 80v352c0 26.5 21.5 48 48 48h352c26.5 0 48-21.5 48-48V80c0-26.5-21.5-48-48-48zM277.3 415.7c-8.4 1.5-11.5-3.7-11.5-8 0-5.4.2-33 .2-55.3 0-15.6-5.2-25.5-11.3-30.7 37-4.1 76-9.2 76-73.1 0-18.2-6.5-27.3-17.1-39 1.7-4.3 7.4-22-1.7-45-13.9-4.3-45.7 17.9-45.7 17.9-13.2-3.7-27.5-5.6-41.6-5.6-14.1 0-28.4 1.9-41.6 5.6 0 0-31.8-22.2-45.7-17.9-9.1 22.9-3.5 40.6-1.7 45-10.6 11.7-15.6 20.8-15.6 39 0 63.6 37.3 69 74.3 73.1-4.8 4.3-9.1 11.7-10.6 22.3-9.5 4.3-33.8 11.7-48.3-13.9-9.1-15.8-25.5-17.1-25.5-17.1-16.2-.2-1.1 10.2-1.1 10.2 10.8 5 18.4 24.2 18.4 24.2 9.7 29.7 56.1 19.7 56.1 19.7 0 13.9.2 36.5.2 40.6 0 4.3-3 9.5-11.5 8-66-22.1-112.2-84.9-112.2-158.3 0-91.8 70.2-161.5 162-161.5S388 165.6 388 257.4c.1 73.4-44.7 136.3-110.7 158.3zm-98.1-61.1c-1.9.4-3.7-.4-3.9-1.7-.2-1.5 1.1-2.8 3-3.2 1.9-.2 3.7.6 3.9 1.9.3 1.3-1 2.6-3 3zm-9.5-.9c0 1.3-1.5 2.4-3.5 2.4-2.2.2-3.7-.9-3.7-2.4 0-1.3 1.5-2.4 3.5-2.4 1.9-.2 3.7.9 3.7 2.4zm-13.7-1.1c-.4 1.3-2.4 1.9-4.1 1.3-1.9-.4-3.2-1.9-2.8-3.2.4-1.3 2.4-1.9 4.1-1.5 2 .6 3.3 2.1 2.8 3.4zm-12.3-5.4c-.9 1.1-2.8.9-4.3-.6-1.5-1.3-1.9-3.2-.9-4.1.9-1.1 2.8-.9 4.3.6 1.3 1.3 1.8 3.3.9 4.1zm-9.1-9.1c-.9.6-2.6 0-3.7-1.5s-1.1-3.2 0-3.9c1.1-.9 2.8-.2 3.7 1.3 1.1 1.5 1.1 3.3 0 4.1zm-6.5-9.7c-.9.9-2.4.4-3.5-.6-1.1-1.3-1.3-2.8-.4-3.5.9-.9 2.4-.4 3.5.6 1.1 1.3 1.3 2.8.4 3.5zm-6.7-7.4c-.4.9-1.7 1.1-2.8.4-1.3-.6-1.9-1.7-1.5-2.6.4-.6 1.5-.9 2.8-.4 1.3.7 1.9 1.8 1.5 2.6z" /></symbol><symbol viewBox="0 0 448 512" id="github-square"><path d="M400 32H48C21.5 32 0 53.5 0 80v352c0 26.5 21.5 48 48 48h352c26.5 0 48-21.5 48-48V80c0-26.5-21.5-48-48-48zM277.3 415.7c-8.4 1.5-11.5-3.7-11.5-8 0-5.4.2-33 .2-55.3 0-15.6-5.2-25.5-11.3-30.7 37-4.1 76-9.2 76-73.1 0-18.2-6.5-27.3-17.1-39 1.7-4.3 7.4-22-1.7-45-13.9-4.3-45.7 17.9-45.7 17.9-13.2-3.7-27.5-5.6-41.6-5.6-14.1 0-28.4 1.9-41.6 5.6 0 0-31.8-22.2-45.7-17.9-9.1 22.9-3.5 40.6-1.7 45-10.6 11.7-15.6 20.8-15.6 39 0 63.6 37.3 69 74.3 73.1-4.8 4.3-9.1 11.7-10.6 22.3-9.5 4.3-33.8 11.7-48.3-13.9-9.1-15.8-25.5-17.1-25.5-17.1-16.2-.2-1.1 10.2-1.1 10.2 10.8 5 18.4 24.2 18.4 24.2 9.7 29.7 56.1 19.7 56.1 19.7 0 13.9.2 36.5.2 40.6 0 4.3-3 9.5-11.5 8-66-22.1-112.2-84.9-112.2-158.3 0-91.8 70.2-161.5 162-161.5S388 165.6 388 257.4c.1 73.4-44.7 136.3-110.7 158.3zm-98.1-61.1c-1.9.4-3.7-.4-3.9-1.7-.2-1.5 1.1-2.8 3-3.2 1.9-.2 3.7.6 3.9 1.9.3 1.3-1 2.6-3 3zm-9.5-.9c0 1.3-1.5 2.4-3.5 2.4-2.2.2-3.7-.9-3.7-2.4 0-1.3 1.5-2.4 3.5-2.4 1.9-.2 3.7.9 3.7 2.4zm-13.7-1.1c-.4 1.3-2.4 1.9-4.1 1.3-1.9-.4-3.2-1.9-2.8-3.2.4-1.3 2.4-1.9 4.1-1.5 2 .6 3.3 2.1 2.8 3.4zm-12.3-5.4c-.9 1.1-2.8.9-4.3-.6-1.5-1.3-1.9-3.2-.9-4.1.9-1.1 2.8-.9 4.3.6 1.3 1.3 1.8 3.3.9 4.1zm-9.1-9.1c-.9.6-2.6 0-3.7-1.5s-1.1-3.2 0-3.9c1.1-.9 2.8-.2 3.7 1.3 1.1 1.5 1.1 3.3 0 4.1zm-6.5-9.7c-.9.9-2.4.4-3.5-.6-1.1-1.3-1.3-2.8-.4-3.5.9-.9 2.4-.4 3.5.6 1.1 1.3 1.3 2.8.4 3.5zm-6.7-7.4c-.4.9-1.7 1.1-2.8.4-1.3-.6-1.9-1.7-1.5-2.6.4-.6 1.5-.9 2.8-.4 1.3.7 1.9 1.8 1.5 2.6z" /></symbol><symbol viewBox="0 0 448 512" id="google-plus-square"><path d="M400 32H48C21.5 32 0 53.5 0 80v352c0 26.5 21.5 48 48 48h352c26.5 0 48-21.5 48-48V80c0-26.5-21.5-48-48-48zM164 356c-55.3 0-100-44.7-100-100s44.7-100 100-100c27 0 49.5 9.8 67 26.2l-27.1 26.1c-7.4-7.1-20.3-15.4-39.8-15.4-34.1 0-61.9 28.2-61.9 63.2 0 34.9 27.8 63.2 61.9 63.2 39.6 0 54.4-28.5 56.8-43.1H164v-34.4h94.4c1 5 1.6 10.1 1.6 16.6 0 57.1-38.3 97.6-96 97.6zm220-81.8h-29v29h-29.2v-29h-29V245h29v-29H355v29h29v29.2z" /></symbol><symbol viewBox="0 0 448 512" id="google-plus-square"><path d="M400 32H48C21.5 32 0 53.5 0 80v352c0 26.5 21.5 48 48 48h352c26.5 0 48-21.5 48-48V80c0-26.5-21.5-48-48-48zM164 356c-55.3 0-100-44.7-100-100s44.7-100 100-100c27 0 49.5 9.8 67 26.2l-27.1 26.1c-7.4-7.1-20.3-15.4-39.8-15.4-34.1 0-61.9 28.2-61.9 63.2 0 34.9 27.8 63.2 61.9 63.2 39.6 0 54.4-28.5 56.8-43.1H164v-34.4h94.4c1 5 1.6 10.1 1.6 16.6 0 57.1-38.3 97.6-96 97.6zm220-81.8h-29v29h-29.2v-29h-29V245h29v-29H355v29h29v29.2z" /></symbol><symbol viewBox="0 0 448 512" id="hacker-news-square"><path d="M400 32H48C21.5 32 0 53.5 0 80v352c0 26.5 21.5 48 48 48h352c26.5 0 48-21.5 48-48V80c0-26.5-21.5-48-48-48zM21.2 229.2H21c.1-.1.2-.3.3-.4 0 .1 0 .3-.1.4zm218 53.9V384h-31.4V281.3L128 128h37.3c52.5 98.3 49.2 101.2 59.3 125.6 12.3-27 5.8-24.4 60.6-125.6H320l-80.8 155.1z" /></symbol><symbol viewBox="0 0 448 512" id="hacker-news-square"><path d="M400 32H48C21.5 32 0 53.5 0 80v352c0 26.5 21.5 48 48 48h352c26.5 0 48-21.5 48-48V80c0-26.5-21.5-48-48-48zM21.2 229.2H21c.1-.1.2-.3.3-.4 0 .1 0 .3-.1.4zm218 53.9V384h-31.4V281.3L128 128h37.3c52.5 98.3 49.2 101.2 59.3 125.6 12.3-27 5.8-24.4 60.6-125.6H320l-80.8 155.1z" /></symbol><symbol viewBox="0 0 448 512" id="instagram"><path d="M224.1 141c-63.6 0-114.9 51.3-114.9 114.9s51.3 114.9 114.9 114.9S339 319.5 339 255.9 287.7 141 224.1 141zm0 189.6c-41.1 0-74.7-33.5-74.7-74.7s33.5-74.7 74.7-74.7 74.7 33.5 74.7 74.7-33.6 74.7-74.7 74.7zm146.4-194.3c0 14.9-12 26.8-26.8 26.8-14.9 0-26.8-12-26.8-26.8s12-26.8 26.8-26.8 26.8 12 26.8 26.8zm76.1 27.2c-1.7-35.9-9.9-67.7-36.2-93.9-26.2-26.2-58-34.4-93.9-36.2-37-2.1-147.9-2.1-184.9 0-35.8 1.7-67.6 9.9-93.9 36.1s-34.4 58-36.2 93.9c-2.1 37-2.1 147.9 0 184.9 1.7 35.9 9.9 67.7 36.2 93.9s58 34.4 93.9 36.2c37 2.1 147.9 2.1 184.9 0 35.9-1.7 67.7-9.9 93.9-36.2 26.2-26.2 34.4-58 36.2-93.9 2.1-37 2.1-147.8 0-184.8zM398.8 388c-7.8 19.6-22.9 34.7-42.6 42.6-29.5 11.7-99.5 9-132.1 9s-102.7 2.6-132.1-9c-19.6-7.8-34.7-22.9-42.6-42.6-11.7-29.5-9-99.5-9-132.1s-2.6-102.7 9-132.1c7.8-19.6 22.9-34.7 42.6-42.6 29.5-11.7 99.5-9 132.1-9s102.7-2.6 132.1 9c19.6 7.8 34.7 22.9 42.6 42.6 11.7 29.5 9 99.5 9 132.1s2.7 102.7-9 132.1z" /></symbol><symbol viewBox="0 0 448 512" id="instagram"><path d="M224.1 141c-63.6 0-114.9 51.3-114.9 114.9s51.3 114.9 114.9 114.9S339 319.5 339 255.9 287.7 141 224.1 141zm0 189.6c-41.1 0-74.7-33.5-74.7-74.7s33.5-74.7 74.7-74.7 74.7 33.5 74.7 74.7-33.6 74.7-74.7 74.7zm146.4-194.3c0 14.9-12 26.8-26.8 26.8-14.9 0-26.8-12-26.8-26.8s12-26.8 26.8-26.8 26.8 12 26.8 26.8zm76.1 27.2c-1.7-35.9-9.9-67.7-36.2-93.9-26.2-26.2-58-34.4-93.9-36.2-37-2.1-147.9-2.1-184.9 0-35.8 1.7-67.6 9.9-93.9 36.1s-34.4 58-36.2 93.9c-2.1 37-2.1 147.9 0 184.9 1.7 35.9 9.9 67.7 36.2 93.9s58 34.4 93.9 36.2c37 2.1 147.9 2.1 184.9 0 35.9-1.7 67.7-9.9 93.9-36.2 26.2-26.2 34.4-58 36.2-93.9 2.1-37 2.1-147.8 0-184.8zM398.8 388c-7.8 19.6-22.9 34.7-42.6 42.6-29.5 11.7-99.5 9-132.1 9s-102.7 2.6-132.1-9c-19.6-7.8-34.7-22.9-42.6-42.6-11.7-29.5-9-99.5-9-132.1s-2.6-102.7 9-132.1c7.8-19.6 22.9-34.7 42.6-42.6 29.5-11.7 99.5-9 132.1-9s102.7-2.6 132.1 9c19.6 7.8 34.7 22.9 42.6 42.6 11.7 29.5 9 99.5 9 132.1s2.7 102.7-9 132.1z" /></symbol><symbol viewBox="0 0 448 512" id="kickstarter"><path d="M400 480H48c-26.4 0-48-21.6-48-48V80c0-26.4 21.6-48 48-48h352c26.4 0 48 21.6 48 48v352c0 26.4-21.6 48-48 48zM199.6 178.5c0-30.7-17.6-45.1-39.7-45.1-25.8 0-40 19.8-40 44.5v154.8c0 25.8 13.7 45.6 40.5 45.6 21.5 0 39.2-14 39.2-45.6v-41.8l60.6 75.7c12.3 14.9 39 16.8 55.8 0 14.6-15.1 14.8-36.8 4-50.4l-49.1-62.8 40.5-58.7c9.4-13.5 9.5-34.5-5.6-49.1-16.4-15.9-44.6-17.3-61.4 7l-44.8 64.7v-38.8z" /></symbol><symbol viewBox="0 0 448 512" id="kickstarter"><path d="M400 480H48c-26.4 0-48-21.6-48-48V80c0-26.4 21.6-48 48-48h352c26.4 0 48 21.6 48 48v352c0 26.4-21.6 48-48 48zM199.6 178.5c0-30.7-17.6-45.1-39.7-45.1-25.8 0-40 19.8-40 44.5v154.8c0 25.8 13.7 45.6 40.5 45.6 21.5 0 39.2-14 39.2-45.6v-41.8l60.6 75.7c12.3 14.9 39 16.8 55.8 0 14.6-15.1 14.8-36.8 4-50.4l-49.1-62.8 40.5-58.7c9.4-13.5 9.5-34.5-5.6-49.1-16.4-15.9-44.6-17.3-61.4 7l-44.8 64.7v-38.8z" /></symbol><symbol viewBox="0 0 448 512" id="linkedin"><path d="M416 32H31.9C14.3 32 0 46.5 0 64.3v383.4C0 465.5 14.3 480 31.9 480H416c17.6 0 32-14.5 32-32.3V64.3c0-17.8-14.4-32.3-32-32.3zM135.4 416H69V202.2h66.5V416zm-33.2-243c-21.3 0-38.5-17.3-38.5-38.5S80.9 96 102.2 96c21.2 0 38.5 17.3 38.5 38.5 0 21.3-17.2 38.5-38.5 38.5zm282.1 243h-66.4V312c0-24.8-.5-56.7-34.5-56.7-34.6 0-39.9 27-39.9 54.9V416h-66.4V202.2h63.7v29.2h.9c8.9-16.8 30.6-34.5 62.9-34.5 67.2 0 79.7 44.3 79.7 101.9V416z" /></symbol><symbol viewBox="0 0 448 512" id="linkedin"><path d="M416 32H31.9C14.3 32 0 46.5 0 64.3v383.4C0 465.5 14.3 480 31.9 480H416c17.6 0 32-14.5 32-32.3V64.3c0-17.8-14.4-32.3-32-32.3zM135.4 416H69V202.2h66.5V416zm-33.2-243c-21.3 0-38.5-17.3-38.5-38.5S80.9 96 102.2 96c21.2 0 38.5 17.3 38.5 38.5 0 21.3-17.2 38.5-38.5 38.5zm282.1 243h-66.4V312c0-24.8-.5-56.7-34.5-56.7-34.6 0-39.9 27-39.9 54.9V416h-66.4V202.2h63.7v29.2h.9c8.9-16.8 30.6-34.5 62.9-34.5 67.2 0 79.7 44.3 79.7 101.9V416z" /></symbol><symbol viewBox="0 0 448 512" id="phone-square"><path d="M400 32H48C21.49 32 0 53.49 0 80v352c0 26.51 21.49 48 48 48h352c26.51 0 48-21.49 48-48V80c0-26.51-21.49-48-48-48zM94 416c-7.033 0-13.057-4.873-14.616-11.627l-14.998-65a15 15 0 0 1 8.707-17.16l69.998-29.999a15 15 0 0 1 17.518 4.289l30.997 37.885c48.944-22.963 88.297-62.858 110.781-110.78l-37.886-30.997a15.001 15.001 0 0 1-4.289-17.518l30-69.998a15 15 0 0 1 17.16-8.707l65 14.998A14.997 14.997 0 0 1 384 126c0 160.292-129.945 290-290 290z" /></symbol><symbol viewBox="0 0 448 512" id="phone-square"><path d="M400 32H48C21.49 32 0 53.49 0 80v352c0 26.51 21.49 48 48 48h352c26.51 0 48-21.49 48-48V80c0-26.51-21.49-48-48-48zM94 416c-7.033 0-13.057-4.873-14.616-11.627l-14.998-65a15 15 0 0 1 8.707-17.16l69.998-29.999a15 15 0 0 1 17.518 4.289l30.997 37.885c48.944-22.963 88.297-62.858 110.781-110.78l-37.886-30.997a15.001 15.001 0 0 1-4.289-17.518l30-69.998a15 15 0 0 1 17.16-8.707l65 14.998A14.997 14.997 0 0 1 384 126c0 160.292-129.945 290-290 290z" /></symbol><symbol viewBox="0 0 448 512" id="pinterest-square"><path d="M448 80v352c0 26.5-21.5 48-48 48H154.4c9.8-16.4 22.4-40 27.4-59.3 3-11.5 15.3-58.4 15.3-58.4 8 15.3 31.4 28.2 56.3 28.2 74.1 0 127.4-68.1 127.4-152.7 0-81.1-66.2-141.8-151.4-141.8-106 0-162.2 71.1-162.2 148.6 0 36 19.2 80.8 49.8 95.1 4.7 2.2 7.1 1.2 8.2-3.3.8-3.4 5-20.1 6.8-27.8.6-2.5.3-4.6-1.7-7-10.1-12.3-18.3-34.9-18.3-56 0-54.2 41-106.6 110.9-106.6 60.3 0 102.6 41.1 102.6 99.9 0 66.4-33.5 112.4-77.2 112.4-24.1 0-42.1-19.9-36.4-44.4 6.9-29.2 20.3-60.7 20.3-81.8 0-53-75.5-45.7-75.5 25 0 21.7 7.3 36.5 7.3 36.5-31.4 132.8-36.1 134.5-29.6 192.6l2.2.8H48c-26.5 0-48-21.5-48-48V80c0-26.5 21.5-48 48-48h352c26.5 0 48 21.5 48 48z" /></symbol><symbol viewBox="0 0 448 512" id="pinterest-square"><path d="M448 80v352c0 26.5-21.5 48-48 48H154.4c9.8-16.4 22.4-40 27.4-59.3 3-11.5 15.3-58.4 15.3-58.4 8 15.3 31.4 28.2 56.3 28.2 74.1 0 127.4-68.1 127.4-152.7 0-81.1-66.2-141.8-151.4-141.8-106 0-162.2 71.1-162.2 148.6 0 36 19.2 80.8 49.8 95.1 4.7 2.2 7.1 1.2 8.2-3.3.8-3.4 5-20.1 6.8-27.8.6-2.5.3-4.6-1.7-7-10.1-12.3-18.3-34.9-18.3-56 0-54.2 41-106.6 110.9-106.6 60.3 0 102.6 41.1 102.6 99.9 0 66.4-33.5 112.4-77.2 112.4-24.1 0-42.1-19.9-36.4-44.4 6.9-29.2 20.3-60.7 20.3-81.8 0-53-75.5-45.7-75.5 25 0 21.7 7.3 36.5 7.3 36.5-31.4 132.8-36.1 134.5-29.6 192.6l2.2.8H48c-26.5 0-48-21.5-48-48V80c0-26.5 21.5-48 48-48h352c26.5 0 48 21.5 48 48z" /></symbol><symbol viewBox="0 0 448 512" id="reddit-square"><path d="M283.2 345.5c2.7 2.7 2.7 6.8 0 9.2-24.5 24.5-93.8 24.6-118.4 0-2.7-2.4-2.7-6.5 0-9.2 2.4-2.4 6.5-2.4 8.9 0 18.7 19.2 81 19.6 100.5 0 2.4-2.3 6.6-2.3 9 0zm-91.3-53.8c0-14.9-11.9-26.8-26.5-26.8-14.9 0-26.8 11.9-26.8 26.8 0 14.6 11.9 26.5 26.8 26.5 14.6 0 26.5-11.9 26.5-26.5zm90.7-26.8c-14.6 0-26.5 11.9-26.5 26.8 0 14.6 11.9 26.5 26.5 26.5 14.9 0 26.8-11.9 26.8-26.5 0-14.9-11.9-26.8-26.8-26.8zM448 80v352c0 26.5-21.5 48-48 48H48c-26.5 0-48-21.5-48-48V80c0-26.5 21.5-48 48-48h352c26.5 0 48 21.5 48 48zm-99.7 140.6c-10.1 0-19 4.2-25.6 10.7-24.1-16.7-56.5-27.4-92.5-28.6l18.7-84.2 59.5 13.4c0 14.6 11.9 26.5 26.5 26.5 14.9 0 26.8-12.2 26.8-26.8 0-14.6-11.9-26.8-26.8-26.8-10.4 0-19.3 6.2-23.8 14.9l-65.7-14.6c-3.3-.9-6.5 1.5-7.4 4.8l-20.5 92.8c-35.7 1.5-67.8 12.2-91.9 28.9-6.5-6.8-15.8-11-25.9-11-37.5 0-49.8 50.4-15.5 67.5-1.2 5.4-1.8 11-1.8 16.7 0 56.5 63.7 102.3 141.9 102.3 78.5 0 142.2-45.8 142.2-102.3 0-5.7-.6-11.6-2.1-17 33.6-17.2 21.2-67.2-16.1-67.2z" /></symbol><symbol viewBox="0 0 448 512" id="reddit-square"><path d="M283.2 345.5c2.7 2.7 2.7 6.8 0 9.2-24.5 24.5-93.8 24.6-118.4 0-2.7-2.4-2.7-6.5 0-9.2 2.4-2.4 6.5-2.4 8.9 0 18.7 19.2 81 19.6 100.5 0 2.4-2.3 6.6-2.3 9 0zm-91.3-53.8c0-14.9-11.9-26.8-26.5-26.8-14.9 0-26.8 11.9-26.8 26.8 0 14.6 11.9 26.5 26.8 26.5 14.6 0 26.5-11.9 26.5-26.5zm90.7-26.8c-14.6 0-26.5 11.9-26.5 26.8 0 14.6 11.9 26.5 26.5 26.5 14.9 0 26.8-11.9 26.8-26.5 0-14.9-11.9-26.8-26.8-26.8zM448 80v352c0 26.5-21.5 48-48 48H48c-26.5 0-48-21.5-48-48V80c0-26.5 21.5-48 48-48h352c26.5 0 48 21.5 48 48zm-99.7 140.6c-10.1 0-19 4.2-25.6 10.7-24.1-16.7-56.5-27.4-92.5-28.6l18.7-84.2 59.5 13.4c0 14.6 11.9 26.5 26.5 26.5 14.9 0 26.8-12.2 26.8-26.8 0-14.6-11.9-26.8-26.8-26.8-10.4 0-19.3 6.2-23.8 14.9l-65.7-14.6c-3.3-.9-6.5 1.5-7.4 4.8l-20.5 92.8c-35.7 1.5-67.8 12.2-91.9 28.9-6.5-6.8-15.8-11-25.9-11-37.5 0-49.8 50.4-15.5 67.5-1.2 5.4-1.8 11-1.8 16.7 0 56.5 63.7 102.3 141.9 102.3 78.5 0 142.2-45.8 142.2-102.3 0-5.7-.6-11.6-2.1-17 33.6-17.2 21.2-67.2-16.1-67.2z" /></symbol><symbol viewBox="0 0 448 512" id="snapchat-square"><path d="M400 32H48C21.5 32 0 53.5 0 80v352c0 26.5 21.5 48 48 48h352c26.5 0 48-21.5 48-48V80c0-26.5-21.5-48-48-48zm-6.5 314.9c-3.5 8.1-18.1 14-44.8 18.2-1.4 1.9-2.5 9.8-4.3 15.9-1.1 3.7-3.7 5.9-8.1 5.9h-.2c-6.2 0-12.8-2.9-25.8-2.9-17.6 0-23.7 4-37.4 13.7-14.5 10.3-28.4 19.1-49.2 18.2-21 1.6-38.6-11.2-48.5-18.2-13.8-9.7-19.8-13.7-37.4-13.7-12.5 0-20.4 3.1-25.8 3.1-5.4 0-7.5-3.3-8.3-6-1.8-6.1-2.9-14.1-4.3-16-13.8-2.1-44.8-7.5-45.5-21.4-.2-3.6 2.3-6.8 5.9-7.4 46.3-7.6 67.1-55.1 68-57.1 0-.1.1-.2.2-.3 2.5-5 3-9.2 1.6-12.5-3.4-7.9-17.9-10.7-24-13.2-15.8-6.2-18-13.4-17-18.3 1.6-8.5 14.4-13.8 21.9-10.3 5.9 2.8 11.2 4.2 15.7 4.2 3.3 0 5.5-.8 6.6-1.4-1.4-23.9-4.7-58 3.8-77.1C159.1 100 206.7 96 220.7 96c.6 0 6.1-.1 6.7-.1 34.7 0 68 17.8 84.3 54.3 8.5 19.1 5.2 53.1 3.8 77.1 1.1.6 2.9 1.3 5.7 1.4 4.3-.2 9.2-1.6 14.7-4.2 4-1.9 9.6-1.6 13.6 0 6.3 2.3 10.3 6.8 10.4 11.9.1 6.5-5.7 12.1-17.2 16.6-1.4.6-3.1 1.1-4.9 1.7-6.5 2.1-16.4 5.2-19 11.5-1.4 3.3-.8 7.5 1.6 12.5.1.1.1.2.2.3.9 2 21.7 49.5 68 57.1 4 1 7.1 5.5 4.9 10.8z" /></symbol><symbol viewBox="0 0 448 512" id="snapchat-square"><path d="M400 32H48C21.5 32 0 53.5 0 80v352c0 26.5 21.5 48 48 48h352c26.5 0 48-21.5 48-48V80c0-26.5-21.5-48-48-48zm-6.5 314.9c-3.5 8.1-18.1 14-44.8 18.2-1.4 1.9-2.5 9.8-4.3 15.9-1.1 3.7-3.7 5.9-8.1 5.9h-.2c-6.2 0-12.8-2.9-25.8-2.9-17.6 0-23.7 4-37.4 13.7-14.5 10.3-28.4 19.1-49.2 18.2-21 1.6-38.6-11.2-48.5-18.2-13.8-9.7-19.8-13.7-37.4-13.7-12.5 0-20.4 3.1-25.8 3.1-5.4 0-7.5-3.3-8.3-6-1.8-6.1-2.9-14.1-4.3-16-13.8-2.1-44.8-7.5-45.5-21.4-.2-3.6 2.3-6.8 5.9-7.4 46.3-7.6 67.1-55.1 68-57.1 0-.1.1-.2.2-.3 2.5-5 3-9.2 1.6-12.5-3.4-7.9-17.9-10.7-24-13.2-15.8-6.2-18-13.4-17-18.3 1.6-8.5 14.4-13.8 21.9-10.3 5.9 2.8 11.2 4.2 15.7 4.2 3.3 0 5.5-.8 6.6-1.4-1.4-23.9-4.7-58 3.8-77.1C159.1 100 206.7 96 220.7 96c.6 0 6.1-.1 6.7-.1 34.7 0 68 17.8 84.3 54.3 8.5 19.1 5.2 53.1 3.8 77.1 1.1.6 2.9 1.3 5.7 1.4 4.3-.2 9.2-1.6 14.7-4.2 4-1.9 9.6-1.6 13.6 0 6.3 2.3 10.3 6.8 10.4 11.9.1 6.5-5.7 12.1-17.2 16.6-1.4.6-3.1 1.1-4.9 1.7-6.5 2.1-16.4 5.2-19 11.5-1.4 3.3-.8 7.5 1.6 12.5.1.1.1.2.2.3.9 2 21.7 49.5 68 57.1 4 1 7.1 5.5 4.9 10.8z" /></symbol><symbol viewBox="0 0 448 512" id="twitter-square"><path d="M400 32H48C21.5 32 0 53.5 0 80v352c0 26.5 21.5 48 48 48h352c26.5 0 48-21.5 48-48V80c0-26.5-21.5-48-48-48zm-48.9 158.8c.2 2.8.2 5.7.2 8.5 0 86.7-66 186.6-186.6 186.6-37.2 0-71.7-10.8-100.7-29.4 5.3.6 10.4.8 15.8.8 30.7 0 58.9-10.4 81.4-28-28.8-.6-53-19.5-61.3-45.5 10.1 1.5 19.2 1.5 29.6-1.2-30-6.1-52.5-32.5-52.5-64.4v-.8c8.7 4.9 18.9 7.9 29.6 8.3a65.447 65.447 0 0 1-29.2-54.6c0-12.2 3.2-23.4 8.9-33.1 32.3 39.8 80.8 65.8 135.2 68.6-9.3-44.5 24-80.6 64-80.6 18.9 0 35.9 7.9 47.9 20.7 14.8-2.8 29-8.3 41.6-15.8-4.9 15.2-15.2 28-28.8 36.1 13.2-1.4 26-5.1 37.8-10.2-8.9 13.1-20.1 24.7-32.9 34z" /></symbol><symbol viewBox="0 0 448 512" id="twitter-square"><path d="M400 32H48C21.5 32 0 53.5 0 80v352c0 26.5 21.5 48 48 48h352c26.5 0 48-21.5 48-48V80c0-26.5-21.5-48-48-48zm-48.9 158.8c.2 2.8.2 5.7.2 8.5 0 86.7-66 186.6-186.6 186.6-37.2 0-71.7-10.8-100.7-29.4 5.3.6 10.4.8 15.8.8 30.7 0 58.9-10.4 81.4-28-28.8-.6-53-19.5-61.3-45.5 10.1 1.5 19.2 1.5 29.6-1.2-30-6.1-52.5-32.5-52.5-64.4v-.8c8.7 4.9 18.9 7.9 29.6 8.3a65.447 65.447 0 0 1-29.2-54.6c0-12.2 3.2-23.4 8.9-33.1 32.3 39.8 80.8 65.8 135.2 68.6-9.3-44.5 24-80.6 64-80.6 18.9 0 35.9 7.9 47.9 20.7 14.8-2.8 29-8.3 41.6-15.8-4.9 15.2-15.2 28-28.8 36.1 13.2-1.4 26-5.1 37.8-10.2-8.9 13.1-20.1 24.7-32.9 34z" /></symbol><symbol viewBox="0 0 448 512" id="vimeo-square"><path d="M400 32H48C21.5 32 0 53.5 0 80v352c0 26.5 21.5 48 48 48h352c26.5 0 48-21.5 48-48V80c0-26.5-21.5-48-48-48zm-16.2 149.6c-1.4 31.1-23.2 73.8-65.3 127.9-43.5 56.5-80.3 84.8-110.4 84.8-18.7 0-34.4-17.2-47.3-51.6-25.2-92.3-35.9-146.4-56.7-146.4-2.4 0-10.8 5-25.1 15.1L64 192c36.9-32.4 72.1-68.4 94.1-70.4 24.9-2.4 40.2 14.6 46 51.1 20.5 129.6 29.6 149.2 66.8 90.5 13.4-21.2 20.6-37.2 21.5-48.3 3.4-32.8-25.6-30.6-45.2-22.2 15.7-51.5 45.8-76.5 90.1-75.1 32.9 1 48.4 22.4 46.5 64z" /></symbol><symbol viewBox="0 0 448 512" id="vimeo-square"><path d="M400 32H48C21.5 32 0 53.5 0 80v352c0 26.5 21.5 48 48 48h352c26.5 0 48-21.5 48-48V80c0-26.5-21.5-48-48-48zm-16.2 149.6c-1.4 31.1-23.2 73.8-65.3 127.9-43.5 56.5-80.3 84.8-110.4 84.8-18.7 0-34.4-17.2-47.3-51.6-25.2-92.3-35.9-146.4-56.7-146.4-2.4 0-10.8 5-25.1 15.1L64 192c36.9-32.4 72.1-68.4 94.1-70.4 24.9-2.4 40.2 14.6 46 51.1 20.5 129.6 29.6 149.2 66.8 90.5 13.4-21.2 20.6-37.2 21.5-48.3 3.4-32.8-25.6-30.6-45.2-22.2 15.7-51.5 45.8-76.5 90.1-75.1 32.9 1 48.4 22.4 46.5 64z" /></symbol><symbol viewBox="0 0 448 512" id="youtube-square"><path d="M186.8 202.1l95.2 54.1-95.2 54.1V202.1zM448 80v352c0 26.5-21.5 48-48 48H48c-26.5 0-48-21.5-48-48V80c0-26.5 21.5-48 48-48h352c26.5 0 48 21.5 48 48zm-42 176.3s0-59.6-7.6-88.2c-4.2-15.8-16.5-28.2-32.2-32.4C337.9 128 224 128 224 128s-113.9 0-142.2 7.7c-15.7 4.2-28 16.6-32.2 32.4-7.6 28.5-7.6 88.2-7.6 88.2s0 59.6 7.6 88.2c4.2 15.8 16.5 27.7 32.2 31.9C110.1 384 224 384 224 384s113.9 0 142.2-7.7c15.7-4.2 28-16.1 32.2-31.9 7.6-28.5 7.6-88.1 7.6-88.1z" /></symbol><symbol viewBox="0 0 448 512" id="youtube-square"><path d="M186.8 202.1l95.2 54.1-95.2 54.1V202.1zM448 80v352c0 26.5-21.5 48-48 48H48c-26.5 0-48-21.5-48-48V80c0-26.5 21.5-48 48-48h352c26.5 0 48 21.5 48 48zm-42 176.3s0-59.6-7.6-88.2c-4.2-15.8-16.5-28.2-32.2-32.4C337.9 128 224 128 224 128s-113.9 0-142.2 7.7c-15.7 4.2-28 16.6-32.2 32.4-7.6 28.5-7.6 88.2-7.6 88.2s0 59.6 7.6 88.2c4.2 15.8 16.5 27.7 32.2 31.9C110.1 384 224 384 224 384s113.9 0 142.2-7.7c15.7-4.2 28-16.1 32.2-31.9 7.6-28.5 7.6-88.1 7.6-88.1z" /></symbol></defs><use id="behance-square-usage" xlink:href="#behance-square" class="sprite-symbol-usage" /><use id="behance-square-usage" xlink:href="#behance-square" class="sprite-symbol-usage" /><use id="blogger-usage" xlink:href="#blogger" class="sprite-symbol-usage" /><use id="blogger-usage" xlink:href="#blogger" class="sprite-symbol-usage" /><use id="chevron-down-usage" xlink:href="#chevron-down" class="sprite-symbol-usage" /><use id="chevron-down-usage" xlink:href="#chevron-down" class="sprite-symbol-usage" /><use id="dribbble-square-usage" xlink:href="#dribbble-square" class="sprite-symbol-usage" /><use id="dribbble-square-usage" xlink:href="#dribbble-square" class="sprite-symbol-usage" /><use id="envelope-square-usage" xlink:href="#envelope-square" class="sprite-symbol-usage" /><use id="envelope-square-usage" xlink:href="#envelope-square" class="sprite-symbol-usage" /><use id="facebook-square-usage" xlink:href="#facebook-square" class="sprite-symbol-usage" /><use id="facebook-square-usage" xlink:href="#facebook-square" class="sprite-symbol-usage" /><use id="flickr-usage" xlink:href="#flickr" class="sprite-symbol-usage" /><use id="flickr-usage" xlink:href="#flickr" class="sprite-symbol-usage" /><use id="github-square-usage" xlink:href="#github-square" class="sprite-symbol-usage" /><use id="github-square-usage" xlink:href="#github-square" class="sprite-symbol-usage" /><use id="google-plus-square-usage" xlink:href="#google-plus-square" class="sprite-symbol-usage" /><use id="google-plus-square-usage" xlink:href="#google-plus-square" class="sprite-symbol-usage" /><use id="hacker-news-square-usage" xlink:href="#hacker-news-square" class="sprite-symbol-usage" /><use id="hacker-news-square-usage" xlink:href="#hacker-news-square" class="sprite-symbol-usage" /><use id="instagram-usage" xlink:href="#instagram" class="sprite-symbol-usage" /><use id="instagram-usage" xlink:href="#instagram" class="sprite-symbol-usage" /><use id="kickstarter-usage" xlink:href="#kickstarter" class="sprite-symbol-usage" /><use id="kickstarter-usage" xlink:href="#kickstarter" class="sprite-symbol-usage" /><use id="linkedin-usage" xlink:href="#linkedin" class="sprite-symbol-usage" /><use id="linkedin-usage" xlink:href="#linkedin" class="sprite-symbol-usage" /><use id="phone-square-usage" xlink:href="#phone-square" class="sprite-symbol-usage" /><use id="phone-square-usage" xlink:href="#phone-square" class="sprite-symbol-usage" /><use id="pinterest-square-usage" xlink:href="#pinterest-square" class="sprite-symbol-usage" /><use id="pinterest-square-usage" xlink:href="#pinterest-square" class="sprite-symbol-usage" /><use id="reddit-square-usage" xlink:href="#reddit-square" class="sprite-symbol-usage" /><use id="reddit-square-usage" xlink:href="#reddit-square" class="sprite-symbol-usage" /><use id="snapchat-square-usage" xlink:href="#snapchat-square" class="sprite-symbol-usage" /><use id="snapchat-square-usage" xlink:href="#snapchat-square" class="sprite-symbol-usage" /><use id="twitter-square-usage" xlink:href="#twitter-square" class="sprite-symbol-usage" /><use id="twitter-square-usage" xlink:href="#twitter-square" class="sprite-symbol-usage" /><use id="vimeo-square-usage" xlink:href="#vimeo-square" class="sprite-symbol-usage" /><use id="vimeo-square-usage" xlink:href="#vimeo-square" class="sprite-symbol-usage" /><use id="youtube-square-usage" xlink:href="#youtube-square" class="sprite-symbol-usage" /><use id="youtube-square-usage" xlink:href="#youtube-square" class="sprite-symbol-usage" /></svg>